<svg width="295" height="40" viewBox="0 0 295 40" fill="none" xmlns="http://www.w3.org/2000/svg">
<rect width="295" height="40" rx="4" fill="#E46643"/>
<path d="M117.004 20.6089H118.41C118.337 21.2827 118.144 21.8857 117.832 22.418C117.519 22.9502 117.077 23.3726 116.506 23.6851C115.935 23.9927 115.222 24.1465 114.367 24.1465C113.742 24.1465 113.173 24.0293 112.661 23.7949C112.153 23.5605 111.716 23.2285 111.35 22.7988C110.983 22.3643 110.7 21.8442 110.5 21.2388C110.305 20.6284 110.207 19.9497 110.207 19.2026V18.1406C110.207 17.3936 110.305 16.7173 110.5 16.1118C110.7 15.5015 110.986 14.979 111.357 14.5444C111.733 14.1099 112.185 13.7754 112.712 13.541C113.239 13.3066 113.833 13.1895 114.492 13.1895C115.297 13.1895 115.979 13.3408 116.535 13.6436C117.092 13.9463 117.524 14.3662 117.832 14.9033C118.144 15.4355 118.337 16.0532 118.41 16.7563H117.004C116.936 16.2583 116.809 15.8311 116.623 15.4746C116.438 15.1133 116.174 14.835 115.832 14.6396C115.49 14.4443 115.043 14.3467 114.492 14.3467C114.018 14.3467 113.601 14.437 113.239 14.6177C112.883 14.7983 112.583 15.0547 112.338 15.3867C112.099 15.7188 111.918 16.1167 111.796 16.5806C111.674 17.0444 111.613 17.5596 111.613 18.126V19.2026C111.613 19.7251 111.667 20.2158 111.774 20.6748C111.887 21.1338 112.055 21.5366 112.28 21.8833C112.504 22.23 112.79 22.5034 113.137 22.7036C113.483 22.8989 113.894 22.9966 114.367 22.9966C114.968 22.9966 115.446 22.9014 115.803 22.7109C116.159 22.5205 116.428 22.2471 116.608 21.8906C116.794 21.5342 116.926 21.1069 117.004 20.6089ZM121.486 17.3203V24H120.131V16.0752H121.45L121.486 17.3203ZM123.962 16.0312L123.955 17.291C123.842 17.2666 123.735 17.252 123.632 17.2471C123.535 17.2373 123.422 17.2324 123.295 17.2324C122.983 17.2324 122.707 17.2812 122.468 17.3789C122.229 17.4766 122.026 17.6133 121.86 17.7891C121.694 17.9648 121.562 18.1748 121.464 18.4189C121.372 18.6582 121.311 18.9219 121.281 19.21L120.9 19.4297C120.9 18.9512 120.947 18.502 121.04 18.082C121.137 17.6621 121.286 17.291 121.486 16.9688C121.687 16.6416 121.94 16.3877 122.248 16.207C122.561 16.0215 122.932 15.9287 123.361 15.9287C123.459 15.9287 123.571 15.9409 123.698 15.9653C123.825 15.9849 123.913 16.0068 123.962 16.0312ZM128.356 24.1465C127.805 24.1465 127.304 24.0537 126.855 23.8682C126.411 23.6777 126.027 23.4116 125.705 23.0698C125.388 22.728 125.144 22.3228 124.973 21.854C124.802 21.3853 124.716 20.8726 124.716 20.3159V20.0083C124.716 19.3638 124.812 18.79 125.002 18.2871C125.192 17.7793 125.451 17.3496 125.778 16.998C126.105 16.6465 126.477 16.3804 126.892 16.1997C127.307 16.019 127.736 15.9287 128.181 15.9287C128.747 15.9287 129.235 16.0264 129.646 16.2217C130.061 16.417 130.4 16.6904 130.664 17.042C130.927 17.3887 131.123 17.7988 131.25 18.2725C131.376 18.7412 131.44 19.2539 131.44 19.8105V20.4185H125.522V19.3125H130.085V19.21C130.065 18.8584 129.992 18.5166 129.865 18.1846C129.743 17.8525 129.548 17.5791 129.279 17.3643C129.011 17.1494 128.645 17.042 128.181 17.042C127.873 17.042 127.59 17.1079 127.331 17.2397C127.072 17.3667 126.85 17.5571 126.665 17.811C126.479 18.0649 126.335 18.375 126.232 18.7412C126.13 19.1074 126.079 19.5298 126.079 20.0083V20.3159C126.079 20.6919 126.13 21.0459 126.232 21.3779C126.34 21.7051 126.494 21.9932 126.694 22.2422C126.899 22.4912 127.146 22.6865 127.434 22.8281C127.727 22.9697 128.059 23.0405 128.43 23.0405C128.908 23.0405 129.313 22.9429 129.646 22.7476C129.978 22.5522 130.268 22.291 130.517 21.9639L131.337 22.6157C131.167 22.8745 130.949 23.1211 130.686 23.3555C130.422 23.5898 130.097 23.7803 129.711 23.9268C129.331 24.0732 128.879 24.1465 128.356 24.1465ZM137.695 22.645V18.5654C137.695 18.2529 137.631 17.9819 137.504 17.7524C137.382 17.5181 137.197 17.3374 136.948 17.2104C136.699 17.0835 136.391 17.02 136.025 17.02C135.683 17.02 135.383 17.0786 135.124 17.1958C134.87 17.313 134.67 17.4668 134.523 17.6572C134.382 17.8477 134.311 18.0527 134.311 18.2725H132.956C132.956 17.9893 133.029 17.7085 133.176 17.4302C133.322 17.1519 133.532 16.9004 133.806 16.6758C134.084 16.4463 134.416 16.2656 134.802 16.1338C135.192 15.9971 135.627 15.9287 136.105 15.9287C136.682 15.9287 137.189 16.0264 137.629 16.2217C138.073 16.417 138.42 16.7124 138.669 17.1079C138.923 17.4985 139.05 17.9893 139.05 18.5801V22.2715C139.05 22.5352 139.072 22.8159 139.116 23.1138C139.165 23.4116 139.235 23.668 139.328 23.8828V24H137.915C137.846 23.8438 137.792 23.6362 137.753 23.3774C137.714 23.1138 137.695 22.8696 137.695 22.645ZM137.929 19.1953L137.944 20.1475H136.574C136.188 20.1475 135.844 20.1792 135.542 20.2427C135.239 20.3013 134.985 20.3916 134.78 20.5137C134.575 20.6357 134.418 20.7896 134.311 20.9751C134.204 21.1558 134.15 21.3682 134.15 21.6123C134.15 21.8613 134.206 22.0884 134.318 22.2935C134.431 22.4985 134.599 22.6621 134.824 22.7842C135.053 22.9014 135.334 22.96 135.666 22.96C136.081 22.96 136.447 22.8721 136.765 22.6963C137.082 22.5205 137.333 22.3057 137.519 22.0518C137.709 21.7979 137.812 21.5513 137.827 21.312L138.405 21.9639C138.371 22.1689 138.278 22.396 138.127 22.645C137.976 22.894 137.773 23.1333 137.519 23.3628C137.27 23.5874 136.972 23.7754 136.625 23.9268C136.284 24.0732 135.898 24.1465 135.468 24.1465C134.931 24.1465 134.46 24.0415 134.055 23.8315C133.654 23.6216 133.342 23.3408 133.117 22.9893C132.897 22.6328 132.788 22.2349 132.788 21.7954C132.788 21.3706 132.871 20.9971 133.037 20.6748C133.203 20.3477 133.442 20.0767 133.754 19.8618C134.067 19.6421 134.443 19.4761 134.882 19.3638C135.322 19.2515 135.812 19.1953 136.354 19.1953H137.929ZM144.499 16.0752V17.1152H140.214V16.0752H144.499ZM141.665 14.1489H143.02V22.0371C143.02 22.3057 143.061 22.5083 143.144 22.645C143.227 22.7817 143.334 22.8721 143.466 22.916C143.598 22.96 143.74 22.9819 143.891 22.9819C144.003 22.9819 144.121 22.9722 144.243 22.9526C144.37 22.9282 144.465 22.9087 144.528 22.894L144.536 24C144.428 24.0342 144.287 24.0659 144.111 24.0952C143.94 24.1294 143.732 24.1465 143.488 24.1465C143.156 24.1465 142.851 24.0806 142.573 23.9487C142.294 23.8169 142.072 23.5972 141.906 23.2896C141.745 22.9771 141.665 22.5571 141.665 22.0298V14.1489ZM149.377 24.1465C148.825 24.1465 148.325 24.0537 147.875 23.8682C147.431 23.6777 147.048 23.4116 146.726 23.0698C146.408 22.728 146.164 22.3228 145.993 21.854C145.822 21.3853 145.737 20.8726 145.737 20.3159V20.0083C145.737 19.3638 145.832 18.79 146.022 18.2871C146.213 17.7793 146.472 17.3496 146.799 16.998C147.126 16.6465 147.497 16.3804 147.912 16.1997C148.327 16.019 148.757 15.9287 149.201 15.9287C149.768 15.9287 150.256 16.0264 150.666 16.2217C151.081 16.417 151.42 16.6904 151.684 17.042C151.948 17.3887 152.143 17.7988 152.27 18.2725C152.397 18.7412 152.46 19.2539 152.46 19.8105V20.4185H146.542V19.3125H151.105V19.21C151.086 18.8584 151.013 18.5166 150.886 18.1846C150.764 17.8525 150.568 17.5791 150.3 17.3643C150.031 17.1494 149.665 17.042 149.201 17.042C148.894 17.042 148.61 17.1079 148.352 17.2397C148.093 17.3667 147.871 17.5571 147.685 17.811C147.5 18.0649 147.355 18.375 147.253 18.7412C147.15 19.1074 147.099 19.5298 147.099 20.0083V20.3159C147.099 20.6919 147.15 21.0459 147.253 21.3779C147.36 21.7051 147.514 21.9932 147.714 22.2422C147.919 22.4912 148.166 22.6865 148.454 22.8281C148.747 22.9697 149.079 23.0405 149.45 23.0405C149.929 23.0405 150.334 22.9429 150.666 22.7476C150.998 22.5522 151.289 22.291 151.538 21.9639L152.358 22.6157C152.187 22.8745 151.97 23.1211 151.706 23.3555C151.442 23.5898 151.118 23.7803 150.732 23.9268C150.351 24.0732 149.899 24.1465 149.377 24.1465ZM166.171 13.3359V24H164.75L159.382 15.7749V24H157.968V13.3359H159.382L164.772 21.583V13.3359H166.171ZM171.76 24.1465C171.208 24.1465 170.708 24.0537 170.258 23.8682C169.814 23.6777 169.431 23.4116 169.108 23.0698C168.791 22.728 168.547 22.3228 168.376 21.854C168.205 21.3853 168.12 20.8726 168.12 20.3159V20.0083C168.12 19.3638 168.215 18.79 168.405 18.2871C168.596 17.7793 168.854 17.3496 169.182 16.998C169.509 16.6465 169.88 16.3804 170.295 16.1997C170.71 16.019 171.14 15.9287 171.584 15.9287C172.15 15.9287 172.639 16.0264 173.049 16.2217C173.464 16.417 173.803 16.6904 174.067 17.042C174.331 17.3887 174.526 17.7988 174.653 18.2725C174.78 18.7412 174.843 19.2539 174.843 19.8105V20.4185H168.925V19.3125H173.488V19.21C173.469 18.8584 173.396 18.5166 173.269 18.1846C173.146 17.8525 172.951 17.5791 172.683 17.3643C172.414 17.1494 172.048 17.042 171.584 17.042C171.276 17.042 170.993 17.1079 170.734 17.2397C170.476 17.3667 170.253 17.5571 170.068 17.811C169.882 18.0649 169.738 18.375 169.636 18.7412C169.533 19.1074 169.482 19.5298 169.482 20.0083V20.3159C169.482 20.6919 169.533 21.0459 169.636 21.3779C169.743 21.7051 169.897 21.9932 170.097 22.2422C170.302 22.4912 170.549 22.6865 170.837 22.8281C171.13 22.9697 171.462 23.0405 171.833 23.0405C172.312 23.0405 172.717 22.9429 173.049 22.7476C173.381 22.5522 173.671 22.291 173.92 21.9639L174.741 22.6157C174.57 22.8745 174.353 23.1211 174.089 23.3555C173.825 23.5898 173.5 23.7803 173.115 23.9268C172.734 24.0732 172.282 24.1465 171.76 24.1465ZM178.432 22.5938L180.468 16.0752H181.362L181.186 17.3716L179.113 24H178.242L178.432 22.5938ZM177.062 16.0752L178.798 22.667L178.923 24H178.007L175.708 16.0752H177.062ZM183.31 22.6157L184.965 16.0752H186.313L184.013 24H183.105L183.31 22.6157ZM181.56 16.0752L183.552 22.4839L183.779 24H182.915L180.783 17.3569L180.607 16.0752H181.56Z" fill="white"/>
</svg>
