<svg width="295" height="40" viewBox="0 0 295 40" fill="none" xmlns="http://www.w3.org/2000/svg">
<rect width="295" height="40" rx="4" fill="#E46643"/>
<path d="M99.5723 20.6089H100.979C100.905 21.2827 100.712 21.8857 100.4 22.418C100.087 22.9502 99.6455 23.3726 99.0742 23.6851C98.5029 23.9927 97.79 24.1465 96.9355 24.1465C96.3105 24.1465 95.7417 24.0293 95.229 23.7949C94.7212 23.5605 94.2842 23.2285 93.918 22.7988C93.5518 22.3643 93.2686 21.8442 93.0684 21.2388C92.873 20.6284 92.7754 19.9497 92.7754 19.2026V18.1406C92.7754 17.3936 92.873 16.7173 93.0684 16.1118C93.2686 15.5015 93.5542 14.979 93.9253 14.5444C94.3013 14.1099 94.7529 13.7754 95.2803 13.541C95.8076 13.3066 96.4009 13.1895 97.0601 13.1895C97.8657 13.1895 98.5469 13.3408 99.1035 13.6436C99.6602 13.9463 100.092 14.3662 100.4 14.9033C100.712 15.4355 100.905 16.0532 100.979 16.7563H99.5723C99.5039 16.2583 99.377 15.8311 99.1914 15.4746C99.0059 15.1133 98.7422 14.835 98.4004 14.6396C98.0586 14.4443 97.6118 14.3467 97.0601 14.3467C96.5864 14.3467 96.1689 14.437 95.8076 14.6177C95.4512 14.7983 95.1509 15.0547 94.9067 15.3867C94.6675 15.7188 94.4868 16.1167 94.3647 16.5806C94.2427 17.0444 94.1816 17.5596 94.1816 18.126V19.2026C94.1816 19.7251 94.2354 20.2158 94.3428 20.6748C94.4551 21.1338 94.6235 21.5366 94.8481 21.8833C95.0728 22.23 95.3584 22.5034 95.7051 22.7036C96.0518 22.8989 96.4619 22.9966 96.9355 22.9966C97.5361 22.9966 98.0146 22.9014 98.3711 22.7109C98.7275 22.5205 98.9961 22.2471 99.1768 21.8906C99.3623 21.5342 99.4941 21.1069 99.5723 20.6089ZM102.341 20.1255V19.957C102.341 19.3857 102.424 18.856 102.59 18.3677C102.756 17.8745 102.995 17.4473 103.308 17.0859C103.62 16.7197 103.999 16.4365 104.443 16.2363C104.887 16.0312 105.385 15.9287 105.937 15.9287C106.494 15.9287 106.994 16.0312 107.438 16.2363C107.888 16.4365 108.269 16.7197 108.581 17.0859C108.898 17.4473 109.14 17.8745 109.306 18.3677C109.472 18.856 109.555 19.3857 109.555 19.957V20.1255C109.555 20.6968 109.472 21.2266 109.306 21.7148C109.14 22.2031 108.898 22.6304 108.581 22.9966C108.269 23.3579 107.89 23.6411 107.446 23.8462C107.006 24.0464 106.508 24.1465 105.952 24.1465C105.395 24.1465 104.895 24.0464 104.45 23.8462C104.006 23.6411 103.625 23.3579 103.308 22.9966C102.995 22.6304 102.756 22.2031 102.59 21.7148C102.424 21.2266 102.341 20.6968 102.341 20.1255ZM103.696 19.957V20.1255C103.696 20.521 103.742 20.8945 103.835 21.2461C103.928 21.5928 104.067 21.9004 104.252 22.1689C104.443 22.4375 104.68 22.6499 104.963 22.8062C105.246 22.9575 105.576 23.0332 105.952 23.0332C106.323 23.0332 106.647 22.9575 106.926 22.8062C107.209 22.6499 107.443 22.4375 107.629 22.1689C107.814 21.9004 107.954 21.5928 108.046 21.2461C108.144 20.8945 108.193 20.521 108.193 20.1255V19.957C108.193 19.5664 108.144 19.1978 108.046 18.8511C107.954 18.4995 107.812 18.1895 107.622 17.9209C107.436 17.6475 107.202 17.4326 106.918 17.2764C106.64 17.1201 106.313 17.042 105.937 17.042C105.566 17.042 105.239 17.1201 104.956 17.2764C104.677 17.4326 104.443 17.6475 104.252 17.9209C104.067 18.1895 103.928 18.4995 103.835 18.8511C103.742 19.1978 103.696 19.5664 103.696 19.957ZM112.609 17.7671V24H111.254V16.0752H112.536L112.609 17.7671ZM112.287 19.7373L111.723 19.7153C111.728 19.1733 111.809 18.6729 111.965 18.2139C112.121 17.75 112.341 17.3472 112.624 17.0054C112.907 16.6636 113.244 16.3999 113.635 16.2144C114.03 16.0239 114.467 15.9287 114.946 15.9287C115.336 15.9287 115.688 15.9824 116 16.0898C116.313 16.1924 116.579 16.3584 116.799 16.5879C117.023 16.8174 117.194 17.1152 117.312 17.4814C117.429 17.8428 117.487 18.2847 117.487 18.8071V24H116.125V18.7925C116.125 18.3774 116.064 18.0454 115.942 17.7964C115.82 17.5425 115.642 17.3594 115.407 17.2471C115.173 17.1299 114.885 17.0713 114.543 17.0713C114.206 17.0713 113.898 17.1421 113.62 17.2837C113.347 17.4253 113.11 17.6206 112.91 17.8696C112.714 18.1187 112.561 18.4043 112.448 18.7266C112.341 19.0439 112.287 19.3809 112.287 19.7373ZM121.354 24H120V15.3867C120 14.7861 120.117 14.2783 120.351 13.8633C120.585 13.4482 120.92 13.1333 121.354 12.9185C121.789 12.7036 122.304 12.5962 122.9 12.5962C123.251 12.5962 123.596 12.6401 123.933 12.728C124.27 12.811 124.616 12.916 124.973 13.043L124.746 14.1855C124.521 14.0977 124.26 14.0146 123.962 13.9365C123.669 13.8535 123.347 13.812 122.995 13.812C122.414 13.812 121.994 13.9438 121.735 14.2075C121.481 14.4663 121.354 14.8594 121.354 15.3867V24ZM122.973 16.0752V17.1152H118.747V16.0752H122.973ZM125.639 16.0752V24H124.284V16.0752H125.639ZM129.221 17.3203V24H127.866V16.0752H129.184L129.221 17.3203ZM131.696 16.0312L131.689 17.291C131.577 17.2666 131.469 17.252 131.367 17.2471C131.269 17.2373 131.157 17.2324 131.03 17.2324C130.717 17.2324 130.441 17.2812 130.202 17.3789C129.963 17.4766 129.76 17.6133 129.594 17.7891C129.428 17.9648 129.296 18.1748 129.199 18.4189C129.106 18.6582 129.045 18.9219 129.016 19.21L128.635 19.4297C128.635 18.9512 128.681 18.502 128.774 18.082C128.872 17.6621 129.021 17.291 129.221 16.9688C129.421 16.6416 129.675 16.3877 129.982 16.207C130.295 16.0215 130.666 15.9287 131.096 15.9287C131.193 15.9287 131.306 15.9409 131.433 15.9653C131.56 15.9849 131.647 16.0068 131.696 16.0312ZM134.296 17.6499V24H132.934V16.0752H134.223L134.296 17.6499ZM134.018 19.7373L133.388 19.7153C133.393 19.1733 133.464 18.6729 133.601 18.2139C133.737 17.75 133.94 17.3472 134.208 17.0054C134.477 16.6636 134.812 16.3999 135.212 16.2144C135.612 16.0239 136.076 15.9287 136.604 15.9287C136.975 15.9287 137.316 15.9824 137.629 16.0898C137.941 16.1924 138.212 16.356 138.442 16.5806C138.671 16.8052 138.85 17.0933 138.977 17.4448C139.104 17.7964 139.167 18.2212 139.167 18.7192V24H137.812V18.7852C137.812 18.3701 137.741 18.0381 137.6 17.7891C137.463 17.54 137.268 17.3594 137.014 17.2471C136.76 17.1299 136.462 17.0713 136.12 17.0713C135.72 17.0713 135.385 17.1421 135.117 17.2837C134.848 17.4253 134.633 17.6206 134.472 17.8696C134.311 18.1187 134.194 18.4043 134.121 18.7266C134.052 19.0439 134.018 19.3809 134.018 19.7373ZM139.152 18.9902L138.244 19.2686C138.249 18.834 138.32 18.4165 138.457 18.0161C138.598 17.6157 138.801 17.2593 139.064 16.9468C139.333 16.6343 139.663 16.3877 140.053 16.207C140.444 16.0215 140.891 15.9287 141.394 15.9287C141.818 15.9287 142.194 15.9849 142.521 16.0972C142.854 16.2095 143.132 16.3828 143.356 16.6172C143.586 16.8467 143.759 17.1421 143.876 17.5034C143.994 17.8647 144.052 18.2944 144.052 18.7925V24H142.69V18.7778C142.69 18.3335 142.619 17.9893 142.478 17.7451C142.341 17.4961 142.146 17.3228 141.892 17.2251C141.643 17.1226 141.345 17.0713 140.998 17.0713C140.7 17.0713 140.437 17.1226 140.207 17.2251C139.978 17.3276 139.785 17.4692 139.628 17.6499C139.472 17.8257 139.353 18.0283 139.27 18.2578C139.191 18.4873 139.152 18.7314 139.152 18.9902ZM151.794 18.082L153.391 16.9468C153.698 16.7368 153.935 16.5269 154.101 16.3169C154.272 16.1021 154.357 15.8091 154.357 15.438C154.357 15.1499 154.245 14.8887 154.021 14.6543C153.796 14.415 153.479 14.2954 153.068 14.2954C152.785 14.2954 152.546 14.3613 152.351 14.4932C152.155 14.625 152.009 14.8008 151.911 15.0205C151.813 15.2354 151.765 15.4722 151.765 15.731C151.765 15.9507 151.818 16.1777 151.926 16.4121C152.033 16.6465 152.182 16.8906 152.373 17.1445C152.563 17.3984 152.78 17.667 153.024 17.9502L158.071 24H156.445L152.307 19.0488C151.94 18.6191 151.613 18.2261 151.325 17.8696C151.037 17.5083 150.81 17.1592 150.644 16.8223C150.483 16.4854 150.402 16.1362 150.402 15.7749C150.402 15.2183 150.512 14.7495 150.732 14.3687C150.957 13.9829 151.269 13.6899 151.669 13.4897C152.07 13.2896 152.539 13.1895 153.076 13.1895C153.598 13.1895 154.047 13.2944 154.423 13.5044C154.804 13.7095 155.097 13.9829 155.302 14.3247C155.507 14.6616 155.61 15.0327 155.61 15.438C155.61 15.7798 155.549 16.0874 155.427 16.3608C155.305 16.6294 155.134 16.876 154.914 17.1006C154.699 17.3252 154.448 17.5449 154.16 17.7598L152.043 19.3345C151.691 19.5933 151.435 19.8398 151.274 20.0742C151.113 20.3086 151.008 20.5161 150.959 20.6968C150.915 20.8774 150.893 21.0215 150.893 21.1289C150.893 21.4756 150.969 21.793 151.12 22.0811C151.271 22.3691 151.501 22.6011 151.809 22.7769C152.121 22.9478 152.512 23.0332 152.98 23.0332C153.391 23.0332 153.789 22.9404 154.174 22.7549C154.565 22.5645 154.914 22.2959 155.222 21.9492C155.529 21.5977 155.773 21.1802 155.954 20.6968C156.14 20.2085 156.232 19.6689 156.232 19.0781H157.448C157.448 19.5615 157.402 20.0181 157.309 20.4478C157.216 20.8774 157.072 21.2778 156.877 21.6489C156.687 22.0151 156.442 22.3496 156.145 22.6523C156.101 22.6963 156.066 22.7476 156.042 22.8062C156.018 22.8647 155.983 22.916 155.939 22.96C155.573 23.3555 155.122 23.6533 154.584 23.8535C154.052 24.0488 153.518 24.1465 152.98 24.1465C152.272 24.1465 151.66 24.0171 151.142 23.7583C150.629 23.4995 150.234 23.1431 149.956 22.689C149.677 22.2349 149.538 21.7148 149.538 21.1289C149.538 20.6797 149.633 20.2842 149.824 19.9424C150.019 19.6006 150.285 19.2808 150.622 18.9829C150.964 18.6851 151.354 18.3848 151.794 18.082ZM165.966 24H163.74L163.754 22.8501H165.966C166.728 22.8501 167.363 22.6914 167.871 22.374C168.378 22.0518 168.759 21.6025 169.013 21.0264C169.272 20.4453 169.401 19.7666 169.401 18.9902V18.3384C169.401 17.728 169.328 17.186 169.182 16.7124C169.035 16.2339 168.82 15.8311 168.537 15.5039C168.254 15.1719 167.907 14.9204 167.497 14.7495C167.092 14.5786 166.625 14.4932 166.098 14.4932H163.696V13.3359H166.098C166.796 13.3359 167.434 13.4531 168.01 13.6875C168.586 13.917 169.082 14.2515 169.497 14.6909C169.917 15.1255 170.239 15.6528 170.463 16.2729C170.688 16.8882 170.8 17.5815 170.8 18.353V18.9902C170.8 19.7617 170.688 20.4575 170.463 21.0776C170.239 21.6929 169.914 22.2178 169.489 22.6523C169.069 23.0869 168.562 23.4214 167.966 23.6558C167.375 23.8853 166.708 24 165.966 24ZM164.494 13.3359V24H163.081V13.3359H164.494ZM176.008 24.1465C175.456 24.1465 174.956 24.0537 174.506 23.8682C174.062 23.6777 173.679 23.4116 173.356 23.0698C173.039 22.728 172.795 22.3228 172.624 21.854C172.453 21.3853 172.368 20.8726 172.368 20.3159V20.0083C172.368 19.3638 172.463 18.79 172.653 18.2871C172.844 17.7793 173.103 17.3496 173.43 16.998C173.757 16.6465 174.128 16.3804 174.543 16.1997C174.958 16.019 175.388 15.9287 175.832 15.9287C176.398 15.9287 176.887 16.0264 177.297 16.2217C177.712 16.417 178.051 16.6904 178.315 17.042C178.579 17.3887 178.774 17.7988 178.901 18.2725C179.028 18.7412 179.091 19.2539 179.091 19.8105V20.4185H173.173V19.3125H177.736V19.21C177.717 18.8584 177.644 18.5166 177.517 18.1846C177.395 17.8525 177.199 17.5791 176.931 17.3643C176.662 17.1494 176.296 17.042 175.832 17.042C175.524 17.042 175.241 17.1079 174.982 17.2397C174.724 17.3667 174.501 17.5571 174.316 17.811C174.13 18.0649 173.986 18.375 173.884 18.7412C173.781 19.1074 173.73 19.5298 173.73 20.0083V20.3159C173.73 20.6919 173.781 21.0459 173.884 21.3779C173.991 21.7051 174.145 21.9932 174.345 22.2422C174.55 22.4912 174.797 22.6865 175.085 22.8281C175.378 22.9697 175.71 23.0405 176.081 23.0405C176.56 23.0405 176.965 22.9429 177.297 22.7476C177.629 22.5522 177.919 22.291 178.168 21.9639L178.989 22.6157C178.818 22.8745 178.601 23.1211 178.337 23.3555C178.073 23.5898 177.749 23.7803 177.363 23.9268C176.982 24.0732 176.53 24.1465 176.008 24.1465ZM182.146 12.75V24H180.783V12.75H182.146ZM187.609 24.1465C187.058 24.1465 186.557 24.0537 186.108 23.8682C185.664 23.6777 185.28 23.4116 184.958 23.0698C184.641 22.728 184.396 22.3228 184.226 21.854C184.055 21.3853 183.969 20.8726 183.969 20.3159V20.0083C183.969 19.3638 184.064 18.79 184.255 18.2871C184.445 17.7793 184.704 17.3496 185.031 16.998C185.358 16.6465 185.729 16.3804 186.145 16.1997C186.56 16.019 186.989 15.9287 187.434 15.9287C188 15.9287 188.488 16.0264 188.898 16.2217C189.313 16.417 189.653 16.6904 189.917 17.042C190.18 17.3887 190.375 17.7988 190.502 18.2725C190.629 18.7412 190.693 19.2539 190.693 19.8105V20.4185H184.775V19.3125H189.338V19.21C189.318 18.8584 189.245 18.5166 189.118 18.1846C188.996 17.8525 188.801 17.5791 188.532 17.3643C188.264 17.1494 187.897 17.042 187.434 17.042C187.126 17.042 186.843 17.1079 186.584 17.2397C186.325 17.3667 186.103 17.5571 185.917 17.811C185.732 18.0649 185.588 18.375 185.485 18.7412C185.383 19.1074 185.332 19.5298 185.332 20.0083V20.3159C185.332 20.6919 185.383 21.0459 185.485 21.3779C185.593 21.7051 185.747 21.9932 185.947 22.2422C186.152 22.4912 186.398 22.6865 186.687 22.8281C186.979 22.9697 187.312 23.0405 187.683 23.0405C188.161 23.0405 188.566 22.9429 188.898 22.7476C189.23 22.5522 189.521 22.291 189.77 21.9639L190.59 22.6157C190.419 22.8745 190.202 23.1211 189.938 23.3555C189.675 23.5898 189.35 23.7803 188.964 23.9268C188.583 24.0732 188.132 24.1465 187.609 24.1465ZM195.593 16.0752V17.1152H191.308V16.0752H195.593ZM192.758 14.1489H194.113V22.0371C194.113 22.3057 194.155 22.5083 194.238 22.645C194.321 22.7817 194.428 22.8721 194.56 22.916C194.692 22.96 194.833 22.9819 194.985 22.9819C195.097 22.9819 195.214 22.9722 195.336 22.9526C195.463 22.9282 195.559 22.9087 195.622 22.894L195.629 24C195.522 24.0342 195.38 24.0659 195.205 24.0952C195.034 24.1294 194.826 24.1465 194.582 24.1465C194.25 24.1465 193.945 24.0806 193.667 23.9487C193.388 23.8169 193.166 23.5972 193 23.2896C192.839 22.9771 192.758 22.5571 192.758 22.0298V14.1489ZM200.471 24.1465C199.919 24.1465 199.418 24.0537 198.969 23.8682C198.525 23.6777 198.142 23.4116 197.819 23.0698C197.502 22.728 197.258 22.3228 197.087 21.854C196.916 21.3853 196.831 20.8726 196.831 20.3159V20.0083C196.831 19.3638 196.926 18.79 197.116 18.2871C197.307 17.7793 197.565 17.3496 197.893 16.998C198.22 16.6465 198.591 16.3804 199.006 16.1997C199.421 16.019 199.851 15.9287 200.295 15.9287C200.861 15.9287 201.35 16.0264 201.76 16.2217C202.175 16.417 202.514 16.6904 202.778 17.042C203.042 17.3887 203.237 17.7988 203.364 18.2725C203.491 18.7412 203.554 19.2539 203.554 19.8105V20.4185H197.636V19.3125H202.199V19.21C202.18 18.8584 202.106 18.5166 201.979 18.1846C201.857 17.8525 201.662 17.5791 201.394 17.3643C201.125 17.1494 200.759 17.042 200.295 17.042C199.987 17.042 199.704 17.1079 199.445 17.2397C199.187 17.3667 198.964 17.5571 198.779 17.811C198.593 18.0649 198.449 18.375 198.347 18.7412C198.244 19.1074 198.193 19.5298 198.193 20.0083V20.3159C198.193 20.6919 198.244 21.0459 198.347 21.3779C198.454 21.7051 198.608 21.9932 198.808 22.2422C199.013 22.4912 199.26 22.6865 199.548 22.8281C199.841 22.9697 200.173 23.0405 200.544 23.0405C201.022 23.0405 201.428 22.9429 201.76 22.7476C202.092 22.5522 202.382 22.291 202.631 21.9639L203.452 22.6157C203.281 22.8745 203.063 23.1211 202.8 23.3555C202.536 23.5898 202.211 23.7803 201.826 23.9268C201.445 24.0732 200.993 24.1465 200.471 24.1465Z" fill="white"/>
</svg>
