<svg width="202" height="40" viewBox="0 0 202 40" fill="none" xmlns="http://www.w3.org/2000/svg">
<rect width="202" height="40" rx="4" fill="#E46643"/>
<path d="M50.8809 18.2798V19.5542H43.5713V18.2798H50.8809ZM47.9072 15.167V22.9307H46.5522V15.167H47.9072ZM64.6724 13.3359V24H63.2515L57.8828 15.7749V24H56.4692V13.3359H57.8828L63.2734 21.583V13.3359H64.6724ZM70.2607 24.1465C69.709 24.1465 69.2085 24.0537 68.7593 23.8682C68.3149 23.6777 67.9316 23.4116 67.6094 23.0698C67.292 22.728 67.0479 22.3228 66.877 21.854C66.7061 21.3853 66.6206 20.8726 66.6206 20.3159V20.0083C66.6206 19.3638 66.7158 18.79 66.9062 18.2871C67.0967 17.7793 67.3555 17.3496 67.6826 16.998C68.0098 16.6465 68.3809 16.3804 68.7959 16.1997C69.2109 16.019 69.6406 15.9287 70.085 15.9287C70.6514 15.9287 71.1396 16.0264 71.5498 16.2217C71.9648 16.417 72.3042 16.6904 72.5679 17.042C72.8315 17.3887 73.0269 17.7988 73.1538 18.2725C73.2808 18.7412 73.3442 19.2539 73.3442 19.8105V20.4185H67.4263V19.3125H71.9893V19.21C71.9697 18.8584 71.8965 18.5166 71.7695 18.1846C71.6475 17.8525 71.4521 17.5791 71.1836 17.3643C70.915 17.1494 70.5488 17.042 70.085 17.042C69.7773 17.042 69.4941 17.1079 69.2354 17.2397C68.9766 17.3667 68.7544 17.5571 68.5688 17.811C68.3833 18.0649 68.2393 18.375 68.1367 18.7412C68.0342 19.1074 67.9829 19.5298 67.9829 20.0083V20.3159C67.9829 20.6919 68.0342 21.0459 68.1367 21.3779C68.2441 21.7051 68.3979 21.9932 68.5981 22.2422C68.8032 22.4912 69.0498 22.6865 69.3379 22.8281C69.6309 22.9697 69.9629 23.0405 70.334 23.0405C70.8125 23.0405 71.2178 22.9429 71.5498 22.7476C71.8818 22.5522 72.1724 22.291 72.4214 21.9639L73.2417 22.6157C73.0708 22.8745 72.8535 23.1211 72.5898 23.3555C72.3262 23.5898 72.0015 23.7803 71.6157 23.9268C71.2349 24.0732 70.7832 24.1465 70.2607 24.1465ZM76.9331 22.5938L78.9692 16.0752H79.8628L79.687 17.3716L77.6143 24H76.7427L76.9331 22.5938ZM75.5635 16.0752L77.2993 22.667L77.4238 24H76.5083L74.2085 16.0752H75.5635ZM81.811 22.6157L83.4663 16.0752H84.814L82.5142 24H81.606L81.811 22.6157ZM80.0605 16.0752L82.0527 22.4839L82.2798 24H81.4155L79.2842 17.3569L79.1084 16.0752H80.0605ZM93.0171 24H90.7905L90.8052 22.8501H93.0171C93.7788 22.8501 94.4136 22.6914 94.9214 22.374C95.4292 22.0518 95.8101 21.6025 96.064 21.0264C96.3228 20.4453 96.4521 19.7666 96.4521 18.9902V18.3384C96.4521 17.728 96.3789 17.186 96.2324 16.7124C96.0859 16.2339 95.8711 15.8311 95.5879 15.5039C95.3047 15.1719 94.958 14.9204 94.5479 14.7495C94.1426 14.5786 93.6763 14.4932 93.1489 14.4932H90.7466V13.3359H93.1489C93.8472 13.3359 94.4844 13.4531 95.0605 13.6875C95.6367 13.917 96.1323 14.2515 96.5474 14.6909C96.9673 15.1255 97.2896 15.6528 97.5142 16.2729C97.7388 16.8882 97.8511 17.5815 97.8511 18.353V18.9902C97.8511 19.7617 97.7388 20.4575 97.5142 21.0776C97.2896 21.6929 96.9648 22.2178 96.54 22.6523C96.1201 23.0869 95.6123 23.4214 95.0166 23.6558C94.4258 23.8853 93.7593 24 93.0171 24ZM91.5449 13.3359V24H90.1313V13.3359H91.5449ZM99.4111 20.1255V19.957C99.4111 19.3857 99.4941 18.856 99.6602 18.3677C99.8262 17.8745 100.065 17.4473 100.378 17.0859C100.69 16.7197 101.069 16.4365 101.513 16.2363C101.958 16.0312 102.456 15.9287 103.007 15.9287C103.564 15.9287 104.064 16.0312 104.509 16.2363C104.958 16.4365 105.339 16.7197 105.651 17.0859C105.969 17.4473 106.21 17.8745 106.376 18.3677C106.542 18.856 106.625 19.3857 106.625 19.957V20.1255C106.625 20.6968 106.542 21.2266 106.376 21.7148C106.21 22.2031 105.969 22.6304 105.651 22.9966C105.339 23.3579 104.96 23.6411 104.516 23.8462C104.077 24.0464 103.579 24.1465 103.022 24.1465C102.465 24.1465 101.965 24.0464 101.521 23.8462C101.076 23.6411 100.695 23.3579 100.378 22.9966C100.065 22.6304 99.8262 22.2031 99.6602 21.7148C99.4941 21.2266 99.4111 20.6968 99.4111 20.1255ZM100.766 19.957V20.1255C100.766 20.521 100.812 20.8945 100.905 21.2461C100.998 21.5928 101.137 21.9004 101.323 22.1689C101.513 22.4375 101.75 22.6499 102.033 22.8062C102.316 22.9575 102.646 23.0332 103.022 23.0332C103.393 23.0332 103.718 22.9575 103.996 22.8062C104.279 22.6499 104.514 22.4375 104.699 22.1689C104.885 21.9004 105.024 21.5928 105.117 21.2461C105.214 20.8945 105.263 20.521 105.263 20.1255V19.957C105.263 19.5664 105.214 19.1978 105.117 18.8511C105.024 18.4995 104.882 18.1895 104.692 17.9209C104.506 17.6475 104.272 17.4326 103.989 17.2764C103.71 17.1201 103.383 17.042 103.007 17.042C102.636 17.042 102.309 17.1201 102.026 17.2764C101.748 17.4326 101.513 17.6475 101.323 17.9209C101.137 18.1895 100.998 18.4995 100.905 18.8511C100.812 19.1978 100.766 19.5664 100.766 19.957ZM111.496 23.0332C111.818 23.0332 112.116 22.9673 112.39 22.8354C112.663 22.7036 112.888 22.5229 113.063 22.2935C113.239 22.0591 113.339 21.793 113.364 21.4951H114.653C114.628 21.9639 114.47 22.4009 114.177 22.8062C113.889 23.2065 113.51 23.5312 113.042 23.7803C112.573 24.0244 112.058 24.1465 111.496 24.1465C110.9 24.1465 110.38 24.0415 109.936 23.8315C109.497 23.6216 109.13 23.3335 108.837 22.9673C108.549 22.6011 108.332 22.1812 108.186 21.7075C108.044 21.229 107.973 20.7236 107.973 20.1914V19.8838C107.973 19.3516 108.044 18.8486 108.186 18.375C108.332 17.8965 108.549 17.4741 108.837 17.1079C109.13 16.7417 109.497 16.4536 109.936 16.2437C110.38 16.0337 110.9 15.9287 111.496 15.9287C112.116 15.9287 112.658 16.0557 113.122 16.3096C113.586 16.5586 113.95 16.9004 114.213 17.335C114.482 17.7646 114.628 18.2529 114.653 18.7998H113.364C113.339 18.4727 113.247 18.1772 113.085 17.9136C112.929 17.6499 112.714 17.4399 112.441 17.2837C112.172 17.1226 111.857 17.042 111.496 17.042C111.081 17.042 110.732 17.125 110.449 17.291C110.17 17.4521 109.948 17.6719 109.782 17.9502C109.621 18.2236 109.504 18.5288 109.431 18.8657C109.362 19.1978 109.328 19.5371 109.328 19.8838V20.1914C109.328 20.5381 109.362 20.8799 109.431 21.2168C109.499 21.5537 109.614 21.8589 109.775 22.1323C109.941 22.4058 110.163 22.6255 110.441 22.7915C110.725 22.9526 111.076 23.0332 111.496 23.0332ZM121.025 22.1689V16.0752H122.387V24H121.091L121.025 22.1689ZM121.281 20.499L121.845 20.4844C121.845 21.0117 121.789 21.5 121.677 21.9492C121.569 22.3936 121.394 22.7793 121.149 23.1064C120.905 23.4336 120.585 23.6899 120.19 23.8755C119.794 24.0562 119.313 24.1465 118.747 24.1465C118.361 24.1465 118.007 24.0903 117.685 23.978C117.368 23.8657 117.094 23.6924 116.865 23.458C116.635 23.2236 116.457 22.9185 116.33 22.5425C116.208 22.1665 116.147 21.7148 116.147 21.1875V16.0752H117.502V21.2021C117.502 21.5586 117.541 21.854 117.619 22.0884C117.702 22.3179 117.812 22.501 117.949 22.6377C118.09 22.7695 118.247 22.8623 118.417 22.916C118.593 22.9697 118.774 22.9966 118.959 22.9966C119.536 22.9966 119.992 22.8867 120.329 22.667C120.666 22.4424 120.908 22.1421 121.054 21.7661C121.206 21.3853 121.281 20.9629 121.281 20.499ZM125.8 17.6499V24H124.438V16.0752H125.727L125.8 17.6499ZM125.522 19.7373L124.892 19.7153C124.897 19.1733 124.968 18.6729 125.104 18.2139C125.241 17.75 125.444 17.3472 125.712 17.0054C125.981 16.6636 126.315 16.3999 126.716 16.2144C127.116 16.0239 127.58 15.9287 128.107 15.9287C128.479 15.9287 128.82 15.9824 129.133 16.0898C129.445 16.1924 129.716 16.356 129.946 16.5806C130.175 16.8052 130.354 17.0933 130.48 17.4448C130.607 17.7964 130.671 18.2212 130.671 18.7192V24H129.316V18.7852C129.316 18.3701 129.245 18.0381 129.104 17.7891C128.967 17.54 128.771 17.3594 128.518 17.2471C128.264 17.1299 127.966 17.0713 127.624 17.0713C127.224 17.0713 126.889 17.1421 126.621 17.2837C126.352 17.4253 126.137 17.6206 125.976 17.8696C125.815 18.1187 125.698 18.4043 125.625 18.7266C125.556 19.0439 125.522 19.3809 125.522 19.7373ZM130.656 18.9902L129.748 19.2686C129.753 18.834 129.824 18.4165 129.96 18.0161C130.102 17.6157 130.305 17.2593 130.568 16.9468C130.837 16.6343 131.167 16.3877 131.557 16.207C131.948 16.0215 132.395 15.9287 132.897 15.9287C133.322 15.9287 133.698 15.9849 134.025 16.0972C134.357 16.2095 134.636 16.3828 134.86 16.6172C135.09 16.8467 135.263 17.1421 135.38 17.5034C135.498 17.8647 135.556 18.2944 135.556 18.7925V24H134.194V18.7778C134.194 18.3335 134.123 17.9893 133.981 17.7451C133.845 17.4961 133.649 17.3228 133.396 17.2251C133.146 17.1226 132.849 17.0713 132.502 17.0713C132.204 17.0713 131.94 17.1226 131.711 17.2251C131.481 17.3276 131.289 17.4692 131.132 17.6499C130.976 17.8257 130.856 18.0283 130.773 18.2578C130.695 18.4873 130.656 18.7314 130.656 18.9902ZM140.896 24.1465C140.344 24.1465 139.843 24.0537 139.394 23.8682C138.95 23.6777 138.566 23.4116 138.244 23.0698C137.927 22.728 137.683 22.3228 137.512 21.854C137.341 21.3853 137.255 20.8726 137.255 20.3159V20.0083C137.255 19.3638 137.351 18.79 137.541 18.2871C137.731 17.7793 137.99 17.3496 138.317 16.998C138.645 16.6465 139.016 16.3804 139.431 16.1997C139.846 16.019 140.275 15.9287 140.72 15.9287C141.286 15.9287 141.774 16.0264 142.185 16.2217C142.6 16.417 142.939 16.6904 143.203 17.042C143.466 17.3887 143.662 17.7988 143.789 18.2725C143.916 18.7412 143.979 19.2539 143.979 19.8105V20.4185H138.061V19.3125H142.624V19.21C142.604 18.8584 142.531 18.5166 142.404 18.1846C142.282 17.8525 142.087 17.5791 141.818 17.3643C141.55 17.1494 141.184 17.042 140.72 17.042C140.412 17.042 140.129 17.1079 139.87 17.2397C139.611 17.3667 139.389 17.5571 139.204 17.811C139.018 18.0649 138.874 18.375 138.771 18.7412C138.669 19.1074 138.618 19.5298 138.618 20.0083V20.3159C138.618 20.6919 138.669 21.0459 138.771 21.3779C138.879 21.7051 139.033 21.9932 139.233 22.2422C139.438 22.4912 139.685 22.6865 139.973 22.8281C140.266 22.9697 140.598 23.0405 140.969 23.0405C141.447 23.0405 141.853 22.9429 142.185 22.7476C142.517 22.5522 142.807 22.291 143.056 21.9639L143.876 22.6157C143.706 22.8745 143.488 23.1211 143.225 23.3555C142.961 23.5898 142.636 23.7803 142.25 23.9268C141.87 24.0732 141.418 24.1465 140.896 24.1465ZM146.916 17.7671V24H145.561V16.0752H146.843L146.916 17.7671ZM146.594 19.7373L146.03 19.7153C146.035 19.1733 146.115 18.6729 146.271 18.2139C146.428 17.75 146.647 17.3472 146.931 17.0054C147.214 16.6636 147.551 16.3999 147.941 16.2144C148.337 16.0239 148.774 15.9287 149.252 15.9287C149.643 15.9287 149.995 15.9824 150.307 16.0898C150.62 16.1924 150.886 16.3584 151.105 16.5879C151.33 16.8174 151.501 17.1152 151.618 17.4814C151.735 17.8428 151.794 18.2847 151.794 18.8071V24H150.432V18.7925C150.432 18.3774 150.371 18.0454 150.249 17.7964C150.126 17.5425 149.948 17.3594 149.714 17.2471C149.479 17.1299 149.191 17.0713 148.85 17.0713C148.513 17.0713 148.205 17.1421 147.927 17.2837C147.653 17.4253 147.417 17.6206 147.216 17.8696C147.021 18.1187 146.867 18.4043 146.755 18.7266C146.647 19.0439 146.594 19.3809 146.594 19.7373ZM157.17 16.0752V17.1152H152.885V16.0752H157.17ZM154.335 14.1489H155.69V22.0371C155.69 22.3057 155.732 22.5083 155.815 22.645C155.898 22.7817 156.005 22.8721 156.137 22.916C156.269 22.96 156.411 22.9819 156.562 22.9819C156.674 22.9819 156.792 22.9722 156.914 22.9526C157.041 22.9282 157.136 22.9087 157.199 22.894L157.207 24C157.099 24.0342 156.958 24.0659 156.782 24.0952C156.611 24.1294 156.403 24.1465 156.159 24.1465C155.827 24.1465 155.522 24.0806 155.244 23.9487C154.965 23.8169 154.743 23.5972 154.577 23.2896C154.416 22.9771 154.335 22.5571 154.335 22.0298V14.1489Z" fill="white"/>
</svg>
