<svg width="295" height="40" viewBox="0 0 295 40" fill="none" xmlns="http://www.w3.org/2000/svg">
<rect width="295" height="40" rx="4" fill="#E46643"/>
<path d="M125.581 19.8179H122.731V18.668H125.581C126.132 18.668 126.579 18.5801 126.921 18.4043C127.263 18.2285 127.512 17.9844 127.668 17.6719C127.829 17.3594 127.91 17.0029 127.91 16.6025C127.91 16.2363 127.829 15.8921 127.668 15.5698C127.512 15.2476 127.263 14.9888 126.921 14.7935C126.579 14.5933 126.132 14.4932 125.581 14.4932H123.061V24H121.647V13.3359H125.581C126.386 13.3359 127.067 13.4751 127.624 13.7534C128.181 14.0317 128.603 14.4175 128.891 14.9106C129.179 15.3989 129.323 15.958 129.323 16.5879C129.323 17.2715 129.179 17.855 128.891 18.3384C128.603 18.8218 128.181 19.1904 127.624 19.4443C127.067 19.6934 126.386 19.8179 125.581 19.8179ZM132.26 17.3203V24H130.905V16.0752H132.224L132.26 17.3203ZM134.736 16.0312L134.729 17.291C134.616 17.2666 134.509 17.252 134.406 17.2471C134.309 17.2373 134.196 17.2324 134.069 17.2324C133.757 17.2324 133.481 17.2812 133.242 17.3789C133.002 17.4766 132.8 17.6133 132.634 17.7891C132.468 17.9648 132.336 18.1748 132.238 18.4189C132.146 18.6582 132.084 18.9219 132.055 19.21L131.674 19.4297C131.674 18.9512 131.721 18.502 131.813 18.082C131.911 17.6621 132.06 17.291 132.26 16.9688C132.46 16.6416 132.714 16.3877 133.022 16.207C133.334 16.0215 133.706 15.9287 134.135 15.9287C134.233 15.9287 134.345 15.9409 134.472 15.9653C134.599 15.9849 134.687 16.0068 134.736 16.0312ZM135.483 20.1255V19.957C135.483 19.3857 135.566 18.856 135.732 18.3677C135.898 17.8745 136.137 17.4473 136.45 17.0859C136.762 16.7197 137.141 16.4365 137.585 16.2363C138.029 16.0312 138.527 15.9287 139.079 15.9287C139.636 15.9287 140.136 16.0312 140.581 16.2363C141.03 16.4365 141.411 16.7197 141.723 17.0859C142.041 17.4473 142.282 17.8745 142.448 18.3677C142.614 18.856 142.697 19.3857 142.697 19.957V20.1255C142.697 20.6968 142.614 21.2266 142.448 21.7148C142.282 22.2031 142.041 22.6304 141.723 22.9966C141.411 23.3579 141.032 23.6411 140.588 23.8462C140.148 24.0464 139.65 24.1465 139.094 24.1465C138.537 24.1465 138.037 24.0464 137.592 23.8462C137.148 23.6411 136.767 23.3579 136.45 22.9966C136.137 22.6304 135.898 22.2031 135.732 21.7148C135.566 21.2266 135.483 20.6968 135.483 20.1255ZM136.838 19.957V20.1255C136.838 20.521 136.884 20.8945 136.977 21.2461C137.07 21.5928 137.209 21.9004 137.395 22.1689C137.585 22.4375 137.822 22.6499 138.105 22.8062C138.388 22.9575 138.718 23.0332 139.094 23.0332C139.465 23.0332 139.79 22.9575 140.068 22.8062C140.351 22.6499 140.585 22.4375 140.771 22.1689C140.957 21.9004 141.096 21.5928 141.188 21.2461C141.286 20.8945 141.335 20.521 141.335 20.1255V19.957C141.335 19.5664 141.286 19.1978 141.188 18.8511C141.096 18.4995 140.954 18.1895 140.764 17.9209C140.578 17.6475 140.344 17.4326 140.061 17.2764C139.782 17.1201 139.455 17.042 139.079 17.042C138.708 17.042 138.381 17.1201 138.098 17.2764C137.819 17.4326 137.585 17.6475 137.395 17.9209C137.209 18.1895 137.07 18.4995 136.977 18.8511C136.884 19.1978 136.838 19.5664 136.838 19.957ZM147.568 23.0332C147.89 23.0332 148.188 22.9673 148.461 22.8354C148.735 22.7036 148.959 22.5229 149.135 22.2935C149.311 22.0591 149.411 21.793 149.436 21.4951H150.725C150.7 21.9639 150.542 22.4009 150.249 22.8062C149.96 23.2065 149.582 23.5312 149.113 23.7803C148.645 24.0244 148.129 24.1465 147.568 24.1465C146.972 24.1465 146.452 24.0415 146.008 23.8315C145.568 23.6216 145.202 23.3335 144.909 22.9673C144.621 22.6011 144.404 22.1812 144.257 21.7075C144.116 21.229 144.045 20.7236 144.045 20.1914V19.8838C144.045 19.3516 144.116 18.8486 144.257 18.375C144.404 17.8965 144.621 17.4741 144.909 17.1079C145.202 16.7417 145.568 16.4536 146.008 16.2437C146.452 16.0337 146.972 15.9287 147.568 15.9287C148.188 15.9287 148.73 16.0557 149.194 16.3096C149.658 16.5586 150.021 16.9004 150.285 17.335C150.554 17.7646 150.7 18.2529 150.725 18.7998H149.436C149.411 18.4727 149.318 18.1772 149.157 17.9136C149.001 17.6499 148.786 17.4399 148.513 17.2837C148.244 17.1226 147.929 17.042 147.568 17.042C147.153 17.042 146.804 17.125 146.521 17.291C146.242 17.4521 146.02 17.6719 145.854 17.9502C145.693 18.2236 145.576 18.5288 145.502 18.8657C145.434 19.1978 145.4 19.5371 145.4 19.8838V20.1914C145.4 20.5381 145.434 20.8799 145.502 21.2168C145.571 21.5537 145.686 21.8589 145.847 22.1323C146.013 22.4058 146.235 22.6255 146.513 22.7915C146.796 22.9526 147.148 23.0332 147.568 23.0332ZM155.537 24.1465C154.985 24.1465 154.484 24.0537 154.035 23.8682C153.591 23.6777 153.208 23.4116 152.885 23.0698C152.568 22.728 152.324 22.3228 152.153 21.854C151.982 21.3853 151.896 20.8726 151.896 20.3159V20.0083C151.896 19.3638 151.992 18.79 152.182 18.2871C152.373 17.7793 152.631 17.3496 152.958 16.998C153.286 16.6465 153.657 16.3804 154.072 16.1997C154.487 16.019 154.917 15.9287 155.361 15.9287C155.927 15.9287 156.416 16.0264 156.826 16.2217C157.241 16.417 157.58 16.6904 157.844 17.042C158.107 17.3887 158.303 17.7988 158.43 18.2725C158.557 18.7412 158.62 19.2539 158.62 19.8105V20.4185H152.702V19.3125H157.265V19.21C157.246 18.8584 157.172 18.5166 157.045 18.1846C156.923 17.8525 156.728 17.5791 156.459 17.3643C156.191 17.1494 155.825 17.042 155.361 17.042C155.053 17.042 154.77 17.1079 154.511 17.2397C154.252 17.3667 154.03 17.5571 153.845 17.811C153.659 18.0649 153.515 18.375 153.413 18.7412C153.31 19.1074 153.259 19.5298 153.259 20.0083V20.3159C153.259 20.6919 153.31 21.0459 153.413 21.3779C153.52 21.7051 153.674 21.9932 153.874 22.2422C154.079 22.4912 154.326 22.6865 154.614 22.8281C154.907 22.9697 155.239 23.0405 155.61 23.0405C156.088 23.0405 156.494 22.9429 156.826 22.7476C157.158 22.5522 157.448 22.291 157.697 21.9639L158.518 22.6157C158.347 22.8745 158.129 23.1211 157.866 23.3555C157.602 23.5898 157.277 23.7803 156.892 23.9268C156.511 24.0732 156.059 24.1465 155.537 24.1465ZM163.491 24.1465C162.939 24.1465 162.438 24.0537 161.989 23.8682C161.545 23.6777 161.162 23.4116 160.839 23.0698C160.522 22.728 160.278 22.3228 160.107 21.854C159.936 21.3853 159.851 20.8726 159.851 20.3159V20.0083C159.851 19.3638 159.946 18.79 160.136 18.2871C160.327 17.7793 160.585 17.3496 160.913 16.998C161.24 16.6465 161.611 16.3804 162.026 16.1997C162.441 16.019 162.871 15.9287 163.315 15.9287C163.881 15.9287 164.37 16.0264 164.78 16.2217C165.195 16.417 165.534 16.6904 165.798 17.042C166.062 17.3887 166.257 17.7988 166.384 18.2725C166.511 18.7412 166.574 19.2539 166.574 19.8105V20.4185H160.656V19.3125H165.219V19.21C165.2 18.8584 165.126 18.5166 165 18.1846C164.877 17.8525 164.682 17.5791 164.414 17.3643C164.145 17.1494 163.779 17.042 163.315 17.042C163.007 17.042 162.724 17.1079 162.465 17.2397C162.207 17.3667 161.984 17.5571 161.799 17.811C161.613 18.0649 161.469 18.375 161.367 18.7412C161.264 19.1074 161.213 19.5298 161.213 20.0083V20.3159C161.213 20.6919 161.264 21.0459 161.367 21.3779C161.474 21.7051 161.628 21.9932 161.828 22.2422C162.033 22.4912 162.28 22.6865 162.568 22.8281C162.861 22.9697 163.193 23.0405 163.564 23.0405C164.042 23.0405 164.448 22.9429 164.78 22.7476C165.112 22.5522 165.402 22.291 165.651 21.9639L166.472 22.6157C166.301 22.8745 166.083 23.1211 165.82 23.3555C165.556 23.5898 165.231 23.7803 164.846 23.9268C164.465 24.0732 164.013 24.1465 163.491 24.1465ZM173.151 22.4619V12.75H174.514V24H173.269L173.151 22.4619ZM167.819 20.1255V19.9717C167.819 19.3662 167.893 18.8169 168.039 18.3237C168.19 17.8257 168.403 17.3984 168.676 17.042C168.955 16.6855 169.284 16.4121 169.665 16.2217C170.051 16.0264 170.48 15.9287 170.954 15.9287C171.452 15.9287 171.887 16.0166 172.258 16.1924C172.634 16.3633 172.951 16.6147 173.21 16.9468C173.474 17.2739 173.681 17.6694 173.833 18.1333C173.984 18.5972 174.089 19.1221 174.147 19.708V20.3818C174.094 20.9629 173.989 21.4854 173.833 21.9492C173.681 22.4131 173.474 22.8086 173.21 23.1357C172.951 23.4629 172.634 23.7144 172.258 23.8901C171.882 24.061 171.442 24.1465 170.939 24.1465C170.476 24.1465 170.051 24.0464 169.665 23.8462C169.284 23.646 168.955 23.3652 168.676 23.0039C168.403 22.6426 168.19 22.2178 168.039 21.7295C167.893 21.2363 167.819 20.7017 167.819 20.1255ZM169.182 19.9717V20.1255C169.182 20.521 169.221 20.8921 169.299 21.2388C169.382 21.5854 169.509 21.8906 169.68 22.1543C169.851 22.418 170.068 22.6255 170.332 22.7769C170.595 22.9233 170.91 22.9966 171.276 22.9966C171.726 22.9966 172.094 22.9014 172.382 22.7109C172.675 22.5205 172.91 22.269 173.085 21.9565C173.261 21.644 173.398 21.3047 173.496 20.9385V19.1733C173.437 18.9048 173.352 18.646 173.239 18.397C173.132 18.1431 172.99 17.9185 172.814 17.7231C172.644 17.5229 172.431 17.3643 172.177 17.2471C171.928 17.1299 171.633 17.0713 171.291 17.0713C170.92 17.0713 170.6 17.1494 170.332 17.3057C170.068 17.457 169.851 17.667 169.68 17.9355C169.509 18.1992 169.382 18.5068 169.299 18.8584C169.221 19.2051 169.182 19.5762 169.182 19.9717Z" fill="white"/>
</svg>
