<svg width="152" height="40" viewBox="0 0 152 40" fill="none" xmlns="http://www.w3.org/2000/svg">
<rect width="152" height="40" rx="4" fill="#E46643"/>
<g clip-path="url(#clip0_0_2177)">
<path d="M46.9214 21.3047C46.9214 21.0557 46.8823 20.8359 46.8042 20.6455C46.731 20.4502 46.5991 20.2744 46.4087 20.1182C46.2231 19.9619 45.9644 19.813 45.6323 19.6714C45.3052 19.5298 44.8901 19.3857 44.3872 19.2393C43.8599 19.083 43.3838 18.9097 42.959 18.7192C42.5342 18.5239 42.1704 18.3018 41.8677 18.0527C41.5649 17.8037 41.333 17.5181 41.1719 17.1958C41.0107 16.8735 40.9302 16.5049 40.9302 16.0898C40.9302 15.6748 41.0156 15.2915 41.1865 14.9399C41.3574 14.5884 41.6016 14.2832 41.9189 14.0244C42.2412 13.7607 42.6245 13.5557 43.0688 13.4092C43.5132 13.2627 44.0088 13.1895 44.5557 13.1895C45.3564 13.1895 46.0352 13.3433 46.5918 13.6509C47.1533 13.9536 47.5806 14.3516 47.8735 14.8447C48.1665 15.333 48.313 15.8555 48.313 16.4121H46.9067C46.9067 16.0117 46.8213 15.6577 46.6504 15.3501C46.4795 15.0376 46.2207 14.7935 45.874 14.6177C45.5273 14.437 45.0879 14.3467 44.5557 14.3467C44.0527 14.3467 43.6377 14.4224 43.3105 14.5737C42.9834 14.7251 42.7393 14.9302 42.5781 15.189C42.4219 15.4478 42.3438 15.7432 42.3438 16.0752C42.3438 16.2998 42.3901 16.5049 42.4829 16.6904C42.5806 16.8711 42.7295 17.0396 42.9297 17.1958C43.1348 17.3521 43.3936 17.4961 43.7061 17.6279C44.0234 17.7598 44.4019 17.8867 44.8413 18.0088C45.4468 18.1797 45.9692 18.3701 46.4087 18.5801C46.8481 18.79 47.2095 19.0269 47.4927 19.2905C47.7808 19.5493 47.9932 19.8447 48.1299 20.1768C48.2715 20.5039 48.3423 20.875 48.3423 21.29C48.3423 21.7246 48.2544 22.1177 48.0786 22.4692C47.9028 22.8208 47.6514 23.1211 47.3242 23.3701C46.9971 23.6191 46.604 23.812 46.145 23.9487C45.6909 24.0806 45.1831 24.1465 44.6216 24.1465C44.1284 24.1465 43.6426 24.0781 43.1641 23.9414C42.6904 23.8047 42.2583 23.5996 41.8677 23.3262C41.4819 23.0527 41.1719 22.7158 40.9375 22.3154C40.708 21.9102 40.5933 21.4414 40.5933 20.9092H41.9995C41.9995 21.2754 42.0703 21.5903 42.2119 21.854C42.3535 22.1128 42.5464 22.3276 42.7905 22.4985C43.0396 22.6694 43.3203 22.7964 43.6328 22.8794C43.9502 22.9575 44.2798 22.9966 44.6216 22.9966C45.1147 22.9966 45.5322 22.9282 45.874 22.7915C46.2158 22.6548 46.4746 22.4595 46.6504 22.2056C46.8311 21.9517 46.9214 21.6514 46.9214 21.3047ZM54.6118 22.645V18.5654C54.6118 18.2529 54.5483 17.9819 54.4214 17.7524C54.2993 17.5181 54.1138 17.3374 53.8647 17.2104C53.6157 17.0835 53.3081 17.02 52.9419 17.02C52.6001 17.02 52.2998 17.0786 52.041 17.1958C51.7871 17.313 51.5869 17.4668 51.4404 17.6572C51.2988 17.8477 51.228 18.0527 51.228 18.2725H49.873C49.873 17.9893 49.9463 17.7085 50.0928 17.4302C50.2393 17.1519 50.4492 16.9004 50.7227 16.6758C51.001 16.4463 51.333 16.2656 51.7188 16.1338C52.1094 15.9971 52.5439 15.9287 53.0225 15.9287C53.5986 15.9287 54.1064 16.0264 54.5459 16.2217C54.9902 16.417 55.3369 16.7124 55.5859 17.1079C55.8398 17.4985 55.9668 17.9893 55.9668 18.5801V22.2715C55.9668 22.5352 55.9888 22.8159 56.0327 23.1138C56.0815 23.4116 56.1523 23.668 56.2451 23.8828V24H54.8315C54.7632 23.8438 54.7095 23.6362 54.6704 23.3774C54.6313 23.1138 54.6118 22.8696 54.6118 22.645ZM54.8462 19.1953L54.8608 20.1475H53.4912C53.1055 20.1475 52.7612 20.1792 52.4585 20.2427C52.1558 20.3013 51.9019 20.3916 51.6968 20.5137C51.4917 20.6357 51.3354 20.7896 51.228 20.9751C51.1206 21.1558 51.0669 21.3682 51.0669 21.6123C51.0669 21.8613 51.123 22.0884 51.2354 22.2935C51.3477 22.4985 51.5161 22.6621 51.7407 22.7842C51.9702 22.9014 52.251 22.96 52.583 22.96C52.998 22.96 53.3643 22.8721 53.6816 22.6963C53.999 22.5205 54.2505 22.3057 54.436 22.0518C54.6265 21.7979 54.729 21.5513 54.7437 21.312L55.3223 21.9639C55.2881 22.1689 55.1953 22.396 55.0439 22.645C54.8926 22.894 54.6899 23.1333 54.436 23.3628C54.187 23.5874 53.8892 23.7754 53.5425 23.9268C53.2007 24.0732 52.8149 24.1465 52.3853 24.1465C51.8481 24.1465 51.377 24.0415 50.9717 23.8315C50.5713 23.6216 50.2588 23.3408 50.0342 22.9893C49.8145 22.6328 49.7046 22.2349 49.7046 21.7954C49.7046 21.3706 49.7876 20.9971 49.9536 20.6748C50.1196 20.3477 50.3589 20.0767 50.6714 19.8618C50.9839 19.6421 51.3599 19.4761 51.7993 19.3638C52.2388 19.2515 52.7295 19.1953 53.2715 19.1953H54.8462ZM60.3906 22.7769L62.5586 16.0752H63.9429L61.0938 24H60.1855L60.3906 22.7769ZM58.5815 16.0752L60.8154 22.8135L60.9692 24H60.061L57.1899 16.0752H58.5815ZM68.4326 24.1465C67.8809 24.1465 67.3804 24.0537 66.9312 23.8682C66.4868 23.6777 66.1035 23.4116 65.7812 23.0698C65.4639 22.728 65.2197 22.3228 65.0488 21.854C64.8779 21.3853 64.7925 20.8726 64.7925 20.3159V20.0083C64.7925 19.3638 64.8877 18.79 65.0781 18.2871C65.2686 17.7793 65.5273 17.3496 65.8545 16.998C66.1816 16.6465 66.5527 16.3804 66.9678 16.1997C67.3828 16.019 67.8125 15.9287 68.2568 15.9287C68.8232 15.9287 69.3115 16.0264 69.7217 16.2217C70.1367 16.417 70.4761 16.6904 70.7397 17.042C71.0034 17.3887 71.1987 17.7988 71.3257 18.2725C71.4526 18.7412 71.5161 19.2539 71.5161 19.8105V20.4185H65.5981V19.3125H70.1611V19.21C70.1416 18.8584 70.0684 18.5166 69.9414 18.1846C69.8193 17.8525 69.624 17.5791 69.3555 17.3643C69.0869 17.1494 68.7207 17.042 68.2568 17.042C67.9492 17.042 67.666 17.1079 67.4072 17.2397C67.1484 17.3667 66.9263 17.5571 66.7407 17.811C66.5552 18.0649 66.4111 18.375 66.3086 18.7412C66.2061 19.1074 66.1548 19.5298 66.1548 20.0083V20.3159C66.1548 20.6919 66.2061 21.0459 66.3086 21.3779C66.416 21.7051 66.5698 21.9932 66.77 22.2422C66.9751 22.4912 67.2217 22.6865 67.5098 22.8281C67.8027 22.9697 68.1348 23.0405 68.5059 23.0405C68.9844 23.0405 69.3896 22.9429 69.7217 22.7476C70.0537 22.5522 70.3442 22.291 70.5933 21.9639L71.4136 22.6157C71.2427 22.8745 71.0254 23.1211 70.7617 23.3555C70.498 23.5898 70.1733 23.7803 69.7876 23.9268C69.4067 24.0732 68.9551 24.1465 68.4326 24.1465ZM83.4619 20.6089H84.8682C84.7949 21.2827 84.6021 21.8857 84.2896 22.418C83.9771 22.9502 83.5352 23.3726 82.9639 23.6851C82.3926 23.9927 81.6797 24.1465 80.8252 24.1465C80.2002 24.1465 79.6313 24.0293 79.1187 23.7949C78.6108 23.5605 78.1738 23.2285 77.8076 22.7988C77.4414 22.3643 77.1582 21.8442 76.958 21.2388C76.7627 20.6284 76.665 19.9497 76.665 19.2026V18.1406C76.665 17.3936 76.7627 16.7173 76.958 16.1118C77.1582 15.5015 77.4438 14.979 77.8149 14.5444C78.1909 14.1099 78.6426 13.7754 79.1699 13.541C79.6973 13.3066 80.2905 13.1895 80.9497 13.1895C81.7554 13.1895 82.4365 13.3408 82.9932 13.6436C83.5498 13.9463 83.9819 14.3662 84.2896 14.9033C84.6021 15.4355 84.7949 16.0532 84.8682 16.7563H83.4619C83.3936 16.2583 83.2666 15.8311 83.0811 15.4746C82.8955 15.1133 82.6318 14.835 82.29 14.6396C81.9482 14.4443 81.5015 14.3467 80.9497 14.3467C80.4761 14.3467 80.0586 14.437 79.6973 14.6177C79.3408 14.7983 79.0405 15.0547 78.7964 15.3867C78.5571 15.7188 78.3765 16.1167 78.2544 16.5806C78.1323 17.0444 78.0713 17.5596 78.0713 18.126V19.2026C78.0713 19.7251 78.125 20.2158 78.2324 20.6748C78.3447 21.1338 78.5132 21.5366 78.7378 21.8833C78.9624 22.23 79.248 22.5034 79.5947 22.7036C79.9414 22.8989 80.3516 22.9966 80.8252 22.9966C81.4258 22.9966 81.9043 22.9014 82.2607 22.7109C82.6172 22.5205 82.8857 22.2471 83.0664 21.8906C83.252 21.5342 83.3838 21.1069 83.4619 20.6089ZM87.9443 12.75V24H86.5894V12.75H87.9443ZM87.6221 19.7373L87.0581 19.7153C87.063 19.1733 87.1436 18.6729 87.2998 18.2139C87.4561 17.75 87.6758 17.3472 87.959 17.0054C88.2422 16.6636 88.5791 16.3999 88.9697 16.2144C89.3652 16.0239 89.8022 15.9287 90.2808 15.9287C90.6714 15.9287 91.0229 15.9824 91.3354 16.0898C91.6479 16.1924 91.9141 16.3584 92.1338 16.5879C92.3584 16.8174 92.5293 17.1152 92.6465 17.4814C92.7637 17.8428 92.8223 18.2847 92.8223 18.8071V24H91.46V18.7925C91.46 18.3774 91.3989 18.0454 91.2769 17.7964C91.1548 17.5425 90.9766 17.3594 90.7422 17.2471C90.5078 17.1299 90.2197 17.0713 89.8779 17.0713C89.541 17.0713 89.2334 17.1421 88.9551 17.2837C88.6816 17.4253 88.4448 17.6206 88.2446 17.8696C88.0493 18.1187 87.8955 18.4043 87.7832 18.7266C87.6758 19.0439 87.6221 19.3809 87.6221 19.7373ZM99.5239 22.645V18.5654C99.5239 18.2529 99.4604 17.9819 99.3335 17.7524C99.2114 17.5181 99.0259 17.3374 98.7769 17.2104C98.5278 17.0835 98.2202 17.02 97.854 17.02C97.5122 17.02 97.2119 17.0786 96.9531 17.1958C96.6992 17.313 96.499 17.4668 96.3525 17.6572C96.2109 17.8477 96.1401 18.0527 96.1401 18.2725H94.7852C94.7852 17.9893 94.8584 17.7085 95.0049 17.4302C95.1514 17.1519 95.3613 16.9004 95.6348 16.6758C95.9131 16.4463 96.2451 16.2656 96.6309 16.1338C97.0215 15.9971 97.4561 15.9287 97.9346 15.9287C98.5107 15.9287 99.0186 16.0264 99.458 16.2217C99.9023 16.417 100.249 16.7124 100.498 17.1079C100.752 17.4985 100.879 17.9893 100.879 18.5801V22.2715C100.879 22.5352 100.901 22.8159 100.945 23.1138C100.994 23.4116 101.064 23.668 101.157 23.8828V24H99.7437C99.6753 23.8438 99.6216 23.6362 99.5825 23.3774C99.5435 23.1138 99.5239 22.8696 99.5239 22.645ZM99.7583 19.1953L99.7729 20.1475H98.4033C98.0176 20.1475 97.6733 20.1792 97.3706 20.2427C97.0679 20.3013 96.814 20.3916 96.6089 20.5137C96.4038 20.6357 96.2476 20.7896 96.1401 20.9751C96.0327 21.1558 95.979 21.3682 95.979 21.6123C95.979 21.8613 96.0352 22.0884 96.1475 22.2935C96.2598 22.4985 96.4282 22.6621 96.6528 22.7842C96.8823 22.9014 97.1631 22.96 97.4951 22.96C97.9102 22.96 98.2764 22.8721 98.5938 22.6963C98.9111 22.5205 99.1626 22.3057 99.3481 22.0518C99.5386 21.7979 99.6411 21.5513 99.6558 21.312L100.234 21.9639C100.2 22.1689 100.107 22.396 99.9561 22.645C99.8047 22.894 99.6021 23.1333 99.3481 23.3628C99.0991 23.5874 98.8013 23.7754 98.4546 23.9268C98.1128 24.0732 97.7271 24.1465 97.2974 24.1465C96.7603 24.1465 96.2891 24.0415 95.8838 23.8315C95.4834 23.6216 95.1709 23.3408 94.9463 22.9893C94.7266 22.6328 94.6167 22.2349 94.6167 21.7954C94.6167 21.3706 94.6997 20.9971 94.8657 20.6748C95.0317 20.3477 95.271 20.0767 95.5835 19.8618C95.896 19.6421 96.272 19.4761 96.7114 19.3638C97.1509 19.2515 97.6416 19.1953 98.1836 19.1953H99.7583ZM104.365 17.7671V24H103.01V16.0752H104.292L104.365 17.7671ZM104.043 19.7373L103.479 19.7153C103.484 19.1733 103.564 18.6729 103.721 18.2139C103.877 17.75 104.097 17.3472 104.38 17.0054C104.663 16.6636 105 16.3999 105.391 16.2144C105.786 16.0239 106.223 15.9287 106.702 15.9287C107.092 15.9287 107.444 15.9824 107.756 16.0898C108.069 16.1924 108.335 16.3584 108.555 16.5879C108.779 16.8174 108.95 17.1152 109.067 17.4814C109.185 17.8428 109.243 18.2847 109.243 18.8071V24H107.881V18.7925C107.881 18.3774 107.82 18.0454 107.698 17.7964C107.576 17.5425 107.397 17.3594 107.163 17.2471C106.929 17.1299 106.641 17.0713 106.299 17.0713C105.962 17.0713 105.654 17.1421 105.376 17.2837C105.103 17.4253 104.866 17.6206 104.666 17.8696C104.47 18.1187 104.316 18.4043 104.204 18.7266C104.097 19.0439 104.043 19.3809 104.043 19.7373ZM116.436 16.0752H117.666V23.8315C117.666 24.5298 117.524 25.1255 117.241 25.6187C116.958 26.1118 116.562 26.4854 116.055 26.7393C115.552 26.998 114.971 27.1274 114.312 27.1274C114.038 27.1274 113.716 27.0835 113.345 26.9956C112.979 26.9126 112.617 26.7686 112.261 26.5635C111.909 26.3633 111.614 26.0923 111.375 25.7505L112.085 24.9448C112.417 25.3452 112.764 25.6235 113.125 25.7798C113.491 25.936 113.853 26.0142 114.209 26.0142C114.639 26.0142 115.01 25.9336 115.322 25.7725C115.635 25.6113 115.876 25.3721 116.047 25.0547C116.223 24.7422 116.311 24.3564 116.311 23.8975V17.8184L116.436 16.0752ZM110.979 20.1255V19.9717C110.979 19.3662 111.05 18.8169 111.191 18.3237C111.338 17.8257 111.545 17.3984 111.814 17.042C112.087 16.6855 112.417 16.4121 112.803 16.2217C113.188 16.0264 113.623 15.9287 114.106 15.9287C114.604 15.9287 115.039 16.0166 115.41 16.1924C115.786 16.3633 116.104 16.6147 116.362 16.9468C116.626 17.2739 116.833 17.6694 116.985 18.1333C117.136 18.5972 117.241 19.1221 117.3 19.708V20.3818C117.246 20.9629 117.141 21.4854 116.985 21.9492C116.833 22.4131 116.626 22.8086 116.362 23.1357C116.104 23.4629 115.786 23.7144 115.41 23.8901C115.034 24.061 114.595 24.1465 114.092 24.1465C113.618 24.1465 113.188 24.0464 112.803 23.8462C112.422 23.646 112.095 23.3652 111.821 23.0039C111.548 22.6426 111.338 22.2178 111.191 21.7295C111.05 21.2363 110.979 20.7017 110.979 20.1255ZM112.334 19.9717V20.1255C112.334 20.521 112.373 20.8921 112.451 21.2388C112.534 21.5854 112.659 21.8906 112.825 22.1543C112.996 22.418 113.213 22.6255 113.477 22.7769C113.74 22.9233 114.055 22.9966 114.421 22.9966C114.871 22.9966 115.242 22.9014 115.535 22.7109C115.828 22.5205 116.06 22.269 116.23 21.9565C116.406 21.644 116.543 21.3047 116.641 20.9385V19.1733C116.587 18.9048 116.504 18.646 116.392 18.397C116.284 18.1431 116.143 17.9185 115.967 17.7231C115.796 17.5229 115.583 17.3643 115.33 17.2471C115.076 17.1299 114.778 17.0713 114.436 17.0713C114.065 17.0713 113.745 17.1494 113.477 17.3057C113.213 17.457 112.996 17.667 112.825 17.9355C112.659 18.1992 112.534 18.5068 112.451 18.8584C112.373 19.2051 112.334 19.5762 112.334 19.9717ZM123.013 24.1465C122.461 24.1465 121.96 24.0537 121.511 23.8682C121.067 23.6777 120.684 23.4116 120.361 23.0698C120.044 22.728 119.8 22.3228 119.629 21.854C119.458 21.3853 119.373 20.8726 119.373 20.3159V20.0083C119.373 19.3638 119.468 18.79 119.658 18.2871C119.849 17.7793 120.107 17.3496 120.435 16.998C120.762 16.6465 121.133 16.3804 121.548 16.1997C121.963 16.019 122.393 15.9287 122.837 15.9287C123.403 15.9287 123.892 16.0264 124.302 16.2217C124.717 16.417 125.056 16.6904 125.32 17.042C125.583 17.3887 125.779 17.7988 125.906 18.2725C126.033 18.7412 126.096 19.2539 126.096 19.8105V20.4185H120.178V19.3125H124.741V19.21C124.722 18.8584 124.648 18.5166 124.521 18.1846C124.399 17.8525 124.204 17.5791 123.936 17.3643C123.667 17.1494 123.301 17.042 122.837 17.042C122.529 17.042 122.246 17.1079 121.987 17.2397C121.729 17.3667 121.506 17.5571 121.321 17.811C121.135 18.0649 120.991 18.375 120.889 18.7412C120.786 19.1074 120.735 19.5298 120.735 20.0083V20.3159C120.735 20.6919 120.786 21.0459 120.889 21.3779C120.996 21.7051 121.15 21.9932 121.35 22.2422C121.555 22.4912 121.802 22.6865 122.09 22.8281C122.383 22.9697 122.715 23.0405 123.086 23.0405C123.564 23.0405 123.97 22.9429 124.302 22.7476C124.634 22.5522 124.924 22.291 125.173 21.9639L125.994 22.6157C125.823 22.8745 125.605 23.1211 125.342 23.3555C125.078 23.5898 124.753 23.7803 124.368 23.9268C123.987 24.0732 123.535 24.1465 123.013 24.1465ZM132.292 21.8979C132.292 21.7026 132.249 21.522 132.161 21.356C132.078 21.1851 131.904 21.0312 131.641 20.8945C131.382 20.7529 130.991 20.6309 130.469 20.5283C130.029 20.4355 129.631 20.3257 129.275 20.1987C128.923 20.0718 128.623 19.918 128.374 19.7373C128.13 19.5566 127.942 19.3442 127.81 19.1001C127.678 18.856 127.612 18.5703 127.612 18.2432C127.612 17.9307 127.681 17.6353 127.817 17.3569C127.959 17.0786 128.157 16.832 128.411 16.6172C128.669 16.4023 128.979 16.2339 129.341 16.1118C129.702 15.9897 130.105 15.9287 130.549 15.9287C131.184 15.9287 131.726 16.041 132.175 16.2656C132.625 16.4902 132.969 16.7905 133.208 17.1665C133.447 17.5376 133.567 17.9502 133.567 18.4043H132.212C132.212 18.1846 132.146 17.9722 132.014 17.7671C131.887 17.5571 131.699 17.3838 131.45 17.2471C131.206 17.1104 130.906 17.042 130.549 17.042C130.173 17.042 129.868 17.1006 129.634 17.2178C129.404 17.3301 129.236 17.4741 129.128 17.6499C129.026 17.8257 128.975 18.0112 128.975 18.2065C128.975 18.353 128.999 18.4849 129.048 18.6021C129.102 18.7144 129.194 18.8193 129.326 18.917C129.458 19.0098 129.644 19.0977 129.883 19.1807C130.122 19.2637 130.427 19.3467 130.798 19.4297C131.448 19.5762 131.982 19.752 132.402 19.957C132.822 20.1621 133.135 20.4136 133.34 20.7114C133.545 21.0093 133.647 21.3706 133.647 21.7954C133.647 22.1421 133.574 22.4595 133.428 22.7476C133.286 23.0356 133.079 23.2847 132.805 23.4946C132.537 23.6997 132.214 23.8608 131.838 23.978C131.467 24.0903 131.05 24.1465 130.586 24.1465C129.888 24.1465 129.297 24.022 128.813 23.7729C128.33 23.5239 127.964 23.2017 127.715 22.8062C127.466 22.4106 127.341 21.9932 127.341 21.5537H128.704C128.723 21.9248 128.831 22.2202 129.026 22.4399C129.221 22.6548 129.46 22.8086 129.744 22.9014C130.027 22.9893 130.308 23.0332 130.586 23.0332C130.957 23.0332 131.267 22.9844 131.516 22.8867C131.77 22.7891 131.963 22.6548 132.095 22.4839C132.227 22.313 132.292 22.1177 132.292 21.8979Z" fill="white"/>
<path fill-rule="evenodd" clip-rule="evenodd" d="M26.5762 12.5976L31.9095 17.9309C32.0759 18.0987 32.1687 18.3258 32.1673 18.562V25.6731C32.1673 27.1459 30.9734 28.3398 29.5006 28.3398H18.834C17.3612 28.3398 16.1673 27.1459 16.1673 25.6731V15.0065C16.1673 13.5337 17.3612 12.3398 18.834 12.3398H25.9451C26.064 12.342 26.1815 12.3661 26.2918 12.4109C26.3977 12.4543 26.4943 12.5176 26.5762 12.5976ZM25.0562 14.1176H21.5006V15.8954H25.0562V14.1176ZM26.834 26.562H21.5006V23.8954C21.5006 23.4044 21.8986 23.0065 22.3895 23.0065H25.9451C26.436 23.0065 26.834 23.4044 26.834 23.8954V26.562ZM29.5006 26.562C29.9916 26.562 30.3895 26.1641 30.3895 25.6731V18.9265L26.834 15.3709V16.7843C26.834 17.2752 26.436 17.6731 25.9451 17.6731H20.6118C20.1208 17.6731 19.7229 17.2752 19.7229 16.7843V14.1176H18.834C18.3431 14.1176 17.9451 14.5156 17.9451 15.0065V25.6731C17.9451 26.1641 18.3431 26.562 18.834 26.562H19.7229V23.8954C19.7229 22.4226 20.9168 21.2287 22.3895 21.2287H25.9451C27.4178 21.2287 28.6118 22.4226 28.6118 23.8954V26.562H29.5006Z" fill="white"/>
</g>
<defs>
<clipPath id="clip0_0_2177">
<rect width="119.833" height="20" fill="white" transform="translate(16.1673 10)"/>
</clipPath>
</defs>
</svg>
